<svg width="2029" height="1192" viewBox="0 0 2029 1192" fill="none" xmlns="http://www.w3.org/2000/svg">
<g id="cloud-right-btm">
<g id="12">
<g id="Clip path group">
<mask id="mask0_4_606" style="mask-type:luminance" maskUnits="userSpaceOnUse" x="29" y="244" width="1863" height="713">
<g id="bc0f7a9b61">
<path id="Vector" d="M29.0259 244.757H1891.93V956.766H29.0259V244.757Z" fill="white"/>
</g>
</mask>
<g mask="url(#mask0_4_606)">
<g id="Group">
<path id="Vector_2" d="M1243.58 406.348C1243.58 406.348 1243.34 354.198 1220.68 316.898C1182.39 253.809 1052.5 224.27 972.102 262.091C924.984 284.255 893.605 325.553 893.605 325.553C893.605 325.553 776.163 226.343 619.38 282.877C497.838 326.707 507.644 464.048 507.644 464.048C507.644 464.048 419.341 437.116 371.363 496.741C320.427 560.041 347.367 625.601 347.367 625.601C347.367 625.601 297.234 598.682 236.153 625.601C187.992 646.846 174.015 694.849 174.015 694.849C174.015 694.849 104.958 688.802 59.5313 709.277C20.3885 726.909 25.926 762.992 37.7337 783.33C51.6548 807.307 124.967 821.797 124.967 821.797C124.967 821.797 139 869.713 180.567 879.497C229.629 891.045 268.871 856.415 268.871 856.415C268.871 856.415 299.672 912.228 360.457 919.901C436.784 929.512 488.017 853.534 488.017 853.534C488.017 853.534 528.385 925.315 643.926 931.436C752.956 937.198 802.018 856.415 802.018 856.415C802.018 856.415 831.467 944.896 953.743 954.941C1059.46 963.62 1125.84 888.152 1125.84 888.152C1125.84 888.152 1144.44 917.716 1184.71 934.317C1285.02 975.665 1343.9 898.731 1343.9 898.731C1343.9 898.731 1452.92 989.137 1587.03 942.971C1656.78 918.97 1694.96 841.987 1694.96 841.987C1694.96 841.987 1730.48 863.592 1770.2 867.962C1822.56 873.736 1875.95 856.415 1887.94 810.262C1916.76 699.319 1769.09 717.944 1769.09 717.944C1769.09 717.944 1793.54 659.238 1750.56 637.149C1679.7 600.718 1609.91 652.533 1609.91 652.533C1609.91 652.533 1618.63 587.135 1554.31 562.14C1489.99 537.133 1384.23 567.914 1384.23 567.914C1384.23 567.914 1416.3 503.583 1397.32 466.941C1356.98 389.027 1243.58 406.348 1243.58 406.348Z" fill="#FA9D9D"/>
</g>
</g>
</g>
<g id="Clip path group_2">
<mask id="mask1_4_606" style="mask-type:luminance" maskUnits="userSpaceOnUse" x="29" y="681" width="1862" height="279">
<g id="04989228ae">
<path id="Vector_3" d="M29.0259 681.166H1890.13V959.287H29.0259V681.166Z" fill="white"/>
</g>
</mask>
<g mask="url(#mask1_4_606)">
<g id="Group_2">
<path id="Vector_4" d="M1682.28 782.66C1682.28 782.66 1672.53 822.592 1643.02 842.297C1617.48 859.358 1574.74 855.794 1547.07 842.297C1518.34 828.254 1499.11 807.679 1499.11 807.679C1499.11 807.679 1458.24 838.435 1420.61 838.448C1398.43 838.448 1377.52 826.453 1366.09 813.441C1347.9 792.717 1346.47 769.188 1346.47 769.188C1346.47 769.188 1290.26 829.334 1220.01 838.448C1214.69 839.131 1176.75 843.576 1143.68 824.976C1109.48 805.73 1091.93 749.607 1091.93 749.607C1091.93 749.607 1042.93 804.513 934.707 798.864C854.406 794.692 744.629 741.114 842.556 693.794C871.343 679.875 764.087 682.805 764.087 682.805C764.087 682.805 677.038 690.267 703.654 698.86C752.449 714.592 717.378 774.018 670.5 792.283C579.942 827.571 447.127 798.864 486.312 751.842C499.078 736.507 439.349 757.665 439.349 757.665C439.349 757.665 409.52 769.858 425.442 771.808C467.501 776.961 457.779 839.466 411.013 857.681C400.911 861.605 353.229 876.058 317.243 855.744C286.737 838.522 267.095 807.679 267.095 807.679C267.095 807.679 258.077 824.79 240.93 834.599C222.006 845.389 190.078 843.092 175.508 828.825C160.094 813.714 158.065 786.509 158.065 786.509C158.065 786.509 139.888 793.934 121.007 798.056C91.9531 804.389 64.7306 795.238 58.1223 791.414C46.4556 784.646 31.2381 772.068 29.0259 752.065C29.0259 772.565 33.422 778.401 38.1282 786.509C52.0494 810.486 125.347 824.976 125.347 824.976C125.347 824.976 139.395 872.892 180.961 882.676C230.024 894.211 269.279 859.593 269.279 859.593C269.279 859.593 300.066 915.406 360.852 923.067C437.179 932.678 488.425 856.713 488.425 856.713C488.425 856.713 528.794 928.494 644.334 934.615C753.351 940.376 802.427 859.593 802.427 859.593C802.427 859.593 831.848 948.087 954.165 958.107C1059.87 966.799 1126.24 891.343 1126.24 891.343C1126.24 891.343 1144.85 920.895 1185.1 937.496C1285.41 978.856 1344.28 901.909 1344.28 901.909C1344.28 901.909 1453.33 992.315 1587.42 946.15C1657.19 922.136 1695.36 845.165 1695.36 845.165C1695.36 845.165 1730.88 866.77 1770.58 871.141C1822.96 876.915 1874.23 862.027 1886.24 815.862C1886.6 814.409 1888.94 806.102 1889.27 804.699C1815.57 907.807 1682.28 782.66 1682.28 782.66Z" fill="#C5445F"/>
</g>
</g>
</g>
<g id="Clip path group_3">
<mask id="mask2_4_606" style="mask-type:luminance" maskUnits="userSpaceOnUse" x="32" y="244" width="1860" height="551">
<g id="f4ecaa806e">
<path id="Vector_5" d="M32.8303 244.248H1891.93V794.667H32.8303V244.248Z" fill="white"/>
</g>
</mask>
<g mask="url(#mask2_4_606)">
<g id="Group_3">
<path id="Vector_6" d="M92.9817 711.934C141.889 716.144 190.782 745.72 190.782 745.72C190.782 745.72 207.212 684.431 245.284 661.088C291.345 632.865 382.664 655.327 382.664 655.327C382.664 655.327 352.933 584.005 371.772 555.298C395.74 518.768 454.623 541.851 454.623 541.851C454.623 541.851 460.668 519.824 485.156 507.233C550.986 473.373 613.491 539.914 613.491 539.914C613.491 539.914 578.645 473.261 594.243 439.426C614.731 395.061 647.476 375.517 700.047 367.335C863.523 341.88 954.799 469.238 959.379 462.757C962.817 457.914 919.757 408.21 932.17 378.361C968.143 291.804 1109.92 350.075 1152.4 389.896C1161.7 398.612 1193.46 428.375 1189.47 464.905C1185.36 502.627 1150.47 532.7 1142.98 538.734C1152.09 531.756 1202.1 496.903 1259.25 526.467C1321.3 558.551 1298.5 624.546 1298.5 624.546C1298.5 624.546 1355.67 602.618 1403.17 593.765C1428.64 589.034 1505.32 574.767 1538.36 605.312C1569.8 634.392 1564.53 695.718 1564.53 695.718C1564.53 695.718 1697.54 632.232 1736.8 688.02C1751.17 708.433 1741.16 753.418 1741.16 753.418C1741.16 753.418 1805.54 728.647 1849.25 749.06C1870.92 759.18 1882.9 771.323 1891.1 794.629C1903.57 700.076 1769.5 716.876 1769.5 716.876C1769.5 716.876 1793.93 658.183 1750.97 636.093C1680.1 599.65 1610.32 651.465 1610.32 651.465C1610.32 651.465 1619.04 586.079 1554.71 561.084C1490.4 536.065 1384.64 566.846 1384.64 566.846C1384.64 566.846 1416.69 502.527 1397.71 465.873C1357.39 387.971 1243.99 405.28 1243.99 405.28C1243.99 405.28 1243.75 353.155 1221.09 315.843C1182.78 252.741 1052.92 223.202 972.497 261.023C925.379 283.187 894 324.51 894 324.51C894 324.51 776.557 225.276 619.789 281.809C498.232 325.652 508.039 462.98 508.039 462.98C508.039 462.98 419.735 436.061 371.772 495.686C320.836 558.986 347.776 624.546 347.776 624.546C347.776 624.546 297.615 597.614 236.562 624.546C188.401 645.803 174.424 693.794 174.424 693.794C174.424 693.794 105.367 687.759 59.94 708.209C49.1187 713.102 40.425 721.781 35.6343 728.759C50.6686 714.803 72.7058 710.196 92.9817 711.934Z" fill="#FFE39C"/>
</g>
</g>
</g>
<path id="Vector_7" d="M926.859 613.743C925.281 615.122 922.364 617.27 919.222 619.604C916.051 622.013 911.74 624.732 906.724 627.886C901.637 631.015 895.804 634.256 889.364 637.571C875.401 644.748 859.282 651.316 842.81 656.569C833.116 659.598 824.07 662.007 815.165 663.956C805.302 666.105 795.495 667.706 785.956 668.762C777.023 669.817 767.357 670.376 756.521 670.475C745.672 670.475 736.33 670.003 727.608 669.01C725.988 668.886 724.494 668.687 723.001 668.489L719.957 668.104C718.266 667.88 716.575 667.681 714.42 667.259L705.261 665.72C704.021 665.484 702.753 665.248 701.414 664.937C693.862 663.348 686.253 661.237 678.757 658.679C672.571 656.581 666.428 654.16 660.017 651.304C654.888 648.994 649.928 646.61 645.786 644.5L606.728 623.255L623.27 646.499L625.82 650.025C627.173 651.788 629.216 654.433 632.02 657.438C636.007 661.784 639.854 665.471 644.095 669.01C649.759 673.766 656.058 678.174 662.779 682.134C670.81 686.84 679.532 690.913 688.705 694.241C690.353 694.837 692.044 695.383 693.763 695.942L703.655 698.86C705.754 699.481 708.276 700.052 710.812 700.61L713.673 701.256C715.955 701.765 718.266 702.262 720.323 702.61C731.821 704.77 743.713 706.061 755.591 706.409C758.254 706.508 760.946 706.558 763.693 706.558C772.81 706.558 782.391 706.012 792.353 704.919C804.865 703.429 816.814 701.169 827.846 698.189C839.189 695.172 850.024 691.472 860.028 687.2C878.712 679.303 895.733 669.258 909.218 658.17C923.717 646.399 931.621 635.696 934.876 630.568C936.13 628.78 937.243 626.955 938.06 625.328C938.934 623.739 939.639 622.385 940.132 621.28L952.841 592.486L926.859 613.743Z" fill="#C5445F"/>
<path id="Vector_8" d="M1238.77 713.884C1238.77 713.884 1239.61 714.405 1241.16 715.399C1242.65 716.392 1244.95 717.758 1247.78 719.484C1250.64 721.197 1254.05 723.258 1258.05 725.407C1262 727.617 1266.53 729.914 1271.42 732.285C1276.37 734.595 1281.72 736.954 1287.47 739.102C1290.39 740.095 1293.23 741.325 1296.35 742.194C1297.86 742.666 1299.39 743.15 1300.91 743.659C1302.48 744.081 1304.06 744.503 1305.65 744.938C1311.97 746.689 1318.62 747.918 1325.37 749.023C1328.73 749.582 1332.21 749.718 1335.62 750.252C1339.25 750.426 1342.89 750.6 1346.54 750.786C1348.65 750.997 1350 750.811 1351.68 750.799L1356.51 750.724C1358.09 750.761 1359.81 750.588 1361.53 750.451C1363.25 750.327 1364.95 750.203 1366.66 750.066C1373.45 749.371 1380.17 748.39 1386.62 747.012C1399.57 744.305 1411.62 740.356 1421.91 736.346C1432.21 732.347 1440.76 728.312 1446.79 725.344C1452.83 722.402 1456.33 720.49 1456.33 720.49C1456.33 720.49 1454.75 723.83 1450.85 729.156C1448.89 731.801 1446.31 734.905 1443.08 738.295C1439.86 741.66 1435.93 745.286 1431.28 748.961C1426.63 752.599 1421.24 756.287 1415.14 759.726C1409.03 763.128 1402.21 766.332 1394.75 768.952C1390.99 770.181 1387.23 771.646 1383.17 772.491C1379.14 773.385 1375.13 774.614 1370.89 775.048C1368.77 775.334 1366.66 775.632 1364.53 775.918C1356.2 778.215 1343.27 785.801 1361.88 808.201L1347.54 800.49C1345.34 800.515 1343.06 821.524 1341.28 821.338C1337.13 821.04 1344.59 791.985 1340.48 791.699C1336.22 791.066 1294.6 813.652 1290.46 812.783C1324.05 791.997 1305.66 771.075 1298.45 767.946C1296.64 767.176 1292.49 764.792 1290.71 764.035C1288.99 763.19 1287.32 762.296 1285.67 761.44C1282.34 759.739 1279.26 757.839 1276.33 755.964C1273.37 754.101 1270.7 752.053 1268.08 750.141C1265.59 748.079 1263.18 746.167 1261.02 744.156C1256.73 740.145 1253.09 736.296 1250.2 732.645C1247.27 729.045 1245.06 725.729 1243.35 722.948C1241.65 720.167 1240.59 717.845 1239.82 716.318C1239.08 714.753 1238.77 713.884 1238.77 713.884Z" fill="#C5445F"/>
<path id="Vector_9" d="M357.893 748.179C357.893 748.179 361.021 748.924 366.488 750.227C371.899 751.482 379.564 753.27 388.652 754.648C397.74 756.026 408.252 757.081 419.186 756.622C420.538 756.523 421.905 756.448 423.3 756.361C424.625 756.212 425.949 756.063 427.288 755.902C428.795 755.728 430.331 755.554 431.867 755.368L434.178 755.107L436.108 754.673C438.715 754.039 441.237 753.717 443.956 752.922C446.634 752.077 449.395 751.457 452.03 750.463C454.637 749.42 457.342 748.576 459.893 747.421C462.372 746.155 465.021 745.161 467.459 743.833C469.84 742.43 472.334 741.213 474.673 739.785C476.928 738.295 479.281 736.942 481.479 735.414C485.861 732.385 490.004 729.256 493.836 726.127C497.669 722.985 501.177 719.844 504.418 716.889C507.56 713.871 510.561 711.115 513.069 708.557C515.563 705.962 517.86 703.752 519.649 701.84C521.481 699.94 522.904 698.45 523.891 697.432C524.905 696.414 525.441 695.867 525.441 695.867C525.441 695.867 525.243 696.563 524.877 697.879C524.468 699.183 523.933 701.119 522.989 703.491C522.087 705.887 520.932 708.781 519.325 711.996C517.761 715.25 515.817 718.851 513.436 722.687C512.153 724.575 510.815 726.524 509.42 728.548C507.983 730.547 506.32 732.509 504.671 734.595C501.219 738.643 497.274 742.765 492.737 746.714C488.186 750.625 483.071 754.399 477.407 757.752C474.603 759.428 471.559 760.893 468.558 762.408C465.501 763.849 462.232 764.978 459.061 766.257C455.821 767.412 452.397 768.169 449.085 769.113C445.774 770.044 441.984 770.38 438.504 770.976L435.84 771.361L433.501 771.497C431.937 771.559 430.402 771.609 428.88 771.671L426.583 771.77L425.442 771.808L424.371 771.845L423.751 771.832C422.102 771.758 420.468 771.683 418.862 771.609C405.913 770.777 394.443 767.598 385.341 763.998C376.225 760.335 369.363 756.274 364.811 753.245C360.218 750.178 357.893 748.179 357.893 748.179Z" fill="#C5445F"/>
</g>
</g>
</svg>
