<svg width="2254" height="1424" viewBox="0 0 2254 1424" fill="none" xmlns="http://www.w3.org/2000/svg">
<g id="cloud-right">
<g id="10">
<path id="Vector" fill-rule="evenodd" clip-rule="evenodd" d="M565.128 759.66C225.149 668.731 130.497 1038.85 695.829 870.657C786.302 918.302 890.987 930.347 1020.83 879.468C1160.92 927.781 1276.03 920.735 1372.95 873.401C1479.58 908.957 1587.5 923.672 1699.23 877.481C1763.32 919.459 1828.37 911.019 1893.99 874.262C2108.46 916.878 2123.49 823.057 2018.11 819.008C1971.61 751.086 1941.13 749.009 1871.95 772.535C1855.76 702.166 1817.62 679.871 1758.2 704.168C1776.78 594.654 1728.02 562.777 1632.22 585.131C1651.67 321.883 1346.31 286.951 1200.76 457.074C1006.88 384.688 875.616 457.534 902.93 596.018C859.948 596.226 825.105 605.971 812.661 642.046C702.465 637.285 598.922 669.473 565.128 759.66Z" fill="#FFC5C5"/>
<g id="Clip path group">
<mask id="mask0_4_604" style="mask-type:luminance" maskUnits="userSpaceOnUse" x="289" y="626" width="1793" height="290">
<g id="468a0c9c44">
<path id="Vector_2" d="M289.749 626.56H2081.85V915.157H289.749V626.56Z" fill="white"/>
</g>
</mask>
<g mask="url(#mask0_4_604)">
<g id="Group">
<g id="Clip path group_2">
<mask id="mask1_4_604" style="mask-type:luminance" maskUnits="userSpaceOnUse" x="290" y="352" width="1792" height="564">
<g id="80309b5fb9">
<path id="Vector_3" fill-rule="evenodd" clip-rule="evenodd" d="M565.128 759.66C225.149 668.731 130.497 1038.85 695.829 870.657C786.302 918.302 890.987 930.347 1020.83 879.468C1160.92 927.781 1276.03 920.72 1372.95 873.401C1479.58 908.957 1587.5 923.672 1699.23 877.481C1763.32 919.459 1828.37 911.019 1893.99 874.262C2108.46 916.878 2123.49 823.057 2018.11 819.008C1971.61 751.086 1941.13 749.009 1871.95 772.535C1855.76 702.166 1817.62 679.871 1758.2 704.168C1776.78 594.654 1728.02 562.777 1632.22 585.131C1651.67 321.883 1346.31 286.951 1200.76 457.074C1006.88 384.688 875.616 457.534 902.93 596.018C859.948 596.226 825.105 605.971 812.661 642.046C702.465 637.285 598.922 669.473 565.128 759.66Z" fill="white"/>
</g>
</mask>
<g mask="url(#mask1_4_604)">
<g id="Group_2">
<path id="Vector_4" fill-rule="evenodd" clip-rule="evenodd" d="M343.359 762.048C347.413 755.284 343.766 777.964 347.069 785.084C375.447 846.464 436.29 861.55 501.938 851.003C558.444 841.925 620.946 810.004 678.626 813.267C740.955 816.783 780.166 863.434 849.821 850.825C900.661 841.629 1009.15 754.141 1009.68 754.097C1058.61 750.893 1130.6 825.356 1232.73 801.593C1313.13 782.859 1315.9 702.314 1275.87 648.113C1274.21 645.858 1262.1 632.923 1266.29 629.749C1279.65 619.618 1348.47 678.521 1371.07 678.521C1408.61 678.521 1446.41 664.741 1484.06 662.293C1485.2 662.219 1500.76 661.136 1500.29 663.51C1499.93 665.423 1492.73 667.188 1491.29 667.678C1441.71 684.959 1292.39 746.621 1406.37 799.724C1474.18 831.319 1546.56 780.382 1613.19 772.564C1660.49 766.987 1665.99 821.366 1705.64 834.138C1759.45 851.448 1818.77 834.701 1873.92 837.09C1916.87 838.959 1951.73 855.75 1991.5 868.447C2021.04 877.866 2177.33 858.85 2163.79 906.643C2147.58 963.766 1738.6 990.97 1687.45 993.804C1318.68 1014.26 929.055 1053.29 564.251 980.824C441.173 956.394 227.357 898.9 207.759 753.177" fill="#CA536D"/>
</g>
</g>
</g>
</g>
</g>
</g>
</g>
</g>
</svg>
