<svg width="1246" height="1264" viewBox="0 0 1246 1264" fill="none" xmlns="http://www.w3.org/2000/svg">
<g id="cloud-middle">
<g id="9">
<path id="Vector" fill-rule="evenodd" clip-rule="evenodd" d="M85.4808 668.959C9.9161 629.88 0.0519301 775.24 89.0457 716.412C96.6688 732.725 108.315 733.107 123.51 719.44C128.009 758.861 188.83 741.955 194.61 715.99C230.069 765.339 269.802 777.413 316.588 728.104C333.755 745.22 351.095 741.27 368.591 717.886C397.067 756.939 430.978 750.961 468.167 717.715C507.485 788.618 550.247 792.383 596.332 731.948C628.832 761.047 658.096 756.912 683.777 715.99C703.177 748.104 723.813 751.646 745.904 721.928C770.538 776.399 800.91 788.934 840.79 731.948C861.652 761.415 881.562 749.908 901.014 719.071C936.819 754.569 964.603 745.01 988.952 716.175C1144.17 794.556 1182.86 708.88 1087.28 638.149C1073.51 587.22 1048.81 564.297 1009.58 578.622C997.137 491.104 962.846 473.052 916.078 494.606C892.179 449.536 865.581 435.672 833.842 481.136C810.964 443.585 787.005 439.819 761.721 477.463C732.319 301.596 627.119 376.764 625.622 459.398C576.405 450.458 534.145 462.453 519.547 536.621C499.092 535.581 493.407 550.867 494.247 573.395L476.647 573.237C447.219 486.285 428.165 485.007 391.737 522.19L364.446 497.002C347.608 402.637 264.498 440.491 266.488 531.038C248.88 523.665 239.907 534.83 236.982 558.978L210.548 558.754C164.264 516.028 148.525 556.858 138.548 613.461C118.093 607.773 109.458 621.73 110.773 652.264C97.9408 652.395 90.0668 652.869 85.4808 668.959Z" fill="#FFB5B5"/>
<g id="Clip path group">
<mask id="mask0_4_607" style="mask-type:luminance" maskUnits="userSpaceOnUse" x="25" y="616" width="1115" height="159">
<g id="08759eba65">
<path id="Vector_2" d="M25.2401 616.832H1139.4V774.674H25.2401V616.832Z" fill="white"/>
</g>
</mask>
<g mask="url(#mask0_4_607)">
<g id="Group">
<g id="Clip path group_2">
<mask id="mask1_4_607" style="mask-type:luminance" maskUnits="userSpaceOnUse" x="25" y="370" width="1115" height="405">
<g id="0290ea965b">
<path id="Vector_3" fill-rule="evenodd" clip-rule="evenodd" d="M85.4808 668.959C9.9161 629.88 0.0519301 775.24 89.0457 716.412C96.6688 732.725 108.315 733.107 123.51 719.44C128.009 758.861 188.83 741.955 194.61 715.977C230.069 765.339 269.802 777.413 316.588 728.104C333.755 745.22 351.095 741.27 368.591 717.886C397.067 756.939 430.978 750.961 468.167 717.715C507.485 788.618 550.247 792.383 596.332 731.948C628.832 761.047 658.096 756.912 683.777 715.977C703.177 748.104 723.813 751.646 745.904 721.928C770.538 776.399 800.91 788.934 840.79 731.948C861.652 761.415 881.562 749.908 901.014 719.071C936.819 754.569 964.603 745.01 988.952 716.175C1144.17 794.556 1182.86 708.88 1087.28 638.149C1073.51 587.22 1048.81 564.297 1009.58 578.622C997.137 491.104 962.846 473.052 916.078 494.606C892.179 449.536 865.581 435.672 833.842 481.136C810.964 443.585 787.005 439.819 761.721 477.463C732.319 301.596 627.119 376.764 625.622 459.398C576.405 450.458 534.145 462.453 519.547 536.621C499.092 535.581 493.407 550.867 494.247 573.395L476.647 573.237C447.219 486.285 428.165 485.007 391.737 522.19L364.446 497.002C347.608 402.637 264.498 440.491 266.488 531.038C248.88 523.665 239.907 534.83 236.982 558.978L210.548 558.754C164.264 516.028 148.525 556.858 138.548 613.461C118.093 607.773 109.458 621.73 110.773 652.264C97.9408 652.395 90.0668 652.869 85.4808 668.959Z" fill="white"/>
</g>
</mask>
<g mask="url(#mask1_4_607)">
<g id="Group_2">
<path id="Vector_4" fill-rule="evenodd" clip-rule="evenodd" d="M23.4836 685.233C22.2376 683.995 26.1227 691.579 26.8495 692.58C30.6481 697.86 35.5542 699.966 40.3565 702.297C54.2183 709.012 73.9553 703.179 86.8998 693.897C95.6218 687.656 155.975 664.219 160.976 665.443C192.966 673.251 222.134 700.928 255.274 708.13C282.288 714.015 244.147 676.556 236.653 667.497C236.403 667.181 231.557 661.335 232.163 660.717C233.53 659.347 238.548 664.43 239.613 665.272C253.682 676.543 266.938 687.642 283.058 690.065C304.699 693.33 323.337 669.143 343.559 661.388C356.676 656.358 366.134 665.865 378.455 665.22C393.044 664.456 406.014 651.223 421.243 651.553C458.078 652.316 500.857 695.582 533.799 689.565C560.908 684.614 551.736 651.013 536.645 634.989C535.408 633.659 533.487 630.92 536.1 630.486C569.682 624.956 592.897 669.104 622.368 681.006C638.852 687.669 646.458 668.801 660.224 666.563C678.646 663.547 700.91 712.527 725.942 676.609C742.123 653.396 727.076 636.766 711.778 629.09C707.901 627.155 699.274 624.89 696.41 619.979C696.306 619.808 696.324 619.518 696.479 619.426C715.351 607.931 741.656 645.641 760.917 642.375C773.342 640.282 821.183 608.261 831.523 622.033C831.939 622.586 824.428 626.72 823.935 626.984C806.396 636.095 754.6 693.462 796.661 708.63C811.103 713.844 818.094 697.623 830.9 694.673C841.128 692.33 852.091 703.456 862.63 703.456C876.864 703.456 885.378 690.671 898.228 685.615C909.251 681.283 920.932 684.035 932.069 680.282C935.599 679.097 939.051 677.465 942.435 675.503C959.403 665.707 981.164 633.541 999.534 632.816C1003.35 632.672 994.464 673.804 996.835 681.112C1003.64 702.126 1027.4 700.717 1040.17 703.021C1056.5 705.957 1074.8 708.024 1090.41 698.123C1101.05 691.369 1148.88 589.893 1145.71 685.733C1141.18 823.035 935.677 792.199 877.123 800.125C754.808 816.663 633.271 811.37 510.687 810.566C427.058 810.027 343.308 817.321 259.73 811.067C187.099 805.642 106.239 804.641 37.8732 762.495C21.6838 752.515 3.6947 740.112 -8.97297 721.244C-25.344 696.872 -18.6814 661.138 5.12241 662.56" fill="#BD6363"/>
</g>
</g>
</g>
</g>
</g>
</g>
</g>
</g>
</svg>
