<svg width="1386" height="820" viewBox="0 0 1386 820" fill="none" xmlns="http://www.w3.org/2000/svg">
<g id="cloud-left">
<g id="12">
<g id="Clip path group">
<mask id="mask0_4_656" style="mask-type:luminance" maskUnits="userSpaceOnUse" x="93" y="168" width="1274" height="491">
<g id="bc0f7a9b61">
<path id="Vector" d="M1366.17 168.373H93.632V658.178H1366.17V168.373Z" fill="white"/>
</g>
</mask>
<g mask="url(#mask0_4_656)">
<g id="Group">
<path id="Vector_2" d="M536.517 279.535C536.517 279.535 536.68 243.66 552.157 218C578.318 174.6 667.041 154.28 721.962 180.298C754.148 195.544 775.582 223.954 775.582 223.954C775.582 223.954 855.807 155.706 962.904 194.596C1045.93 224.748 1039.23 319.228 1039.23 319.228C1039.23 319.228 1099.55 300.701 1132.32 341.718C1167.12 385.263 1148.71 430.363 1148.71 430.363C1148.71 430.363 1182.96 411.845 1224.68 430.363C1257.58 444.978 1267.13 478 1267.13 478C1267.13 478 1314.3 473.84 1345.33 487.926C1372.07 500.055 1368.29 524.877 1360.22 538.868C1350.71 555.362 1300.64 565.33 1300.64 565.33C1300.64 565.33 1291.05 598.293 1262.66 605.023C1229.14 612.967 1202.34 589.144 1202.34 589.144C1202.34 589.144 1181.3 627.539 1139.77 632.818C1087.63 639.429 1052.64 587.163 1052.64 587.163C1052.64 587.163 1025.06 636.542 946.137 640.753C871.659 644.716 838.145 589.144 838.145 589.144C838.145 589.144 818.029 650.012 734.503 656.923C662.287 662.893 616.943 610.977 616.943 610.977C616.943 610.977 604.238 631.315 576.73 642.735C508.21 671.179 467.987 618.254 467.987 618.254C467.987 618.254 393.518 680.446 301.907 648.688C254.264 632.177 228.18 579.219 228.18 579.219C228.18 579.219 203.915 594.081 176.782 597.088C141.016 601.06 104.547 589.144 96.3559 557.395C76.6728 481.075 177.543 493.888 177.543 493.888C177.543 493.888 160.843 453.503 190.2 438.307C238.604 413.246 286.276 448.89 286.276 448.89C286.276 448.89 280.318 403.901 324.257 386.707C368.195 369.504 440.44 390.679 440.44 390.679C440.44 390.679 418.533 346.424 431.498 321.218C459.055 267.619 536.517 279.535 536.517 279.535Z" fill="#F7CAD8"/>
</g>
</g>
</g>
<g id="Clip path group_2">
<mask id="mask1_4_656" style="mask-type:luminance" maskUnits="userSpaceOnUse" x="94" y="468" width="1273" height="192">
<g id="04989228ae">
<path id="Vector_3" d="M1366.17 468.587H94.864V659.912H1366.17V468.587Z" fill="white"/>
</g>
</mask>
<g mask="url(#mask1_4_656)">
<g id="Group_2">
<path id="Vector_4" d="M236.842 538.407C236.842 538.407 243.503 565.877 263.658 579.432C281.108 591.169 310.3 588.717 329.204 579.432C348.829 569.772 361.967 555.618 361.967 555.618C361.967 555.618 389.88 576.776 415.588 576.785C430.738 576.785 445.022 568.533 452.827 559.582C465.253 545.326 466.235 529.139 466.235 529.139C466.235 529.139 504.629 570.515 552.619 576.785C556.248 577.254 582.168 580.312 604.758 567.517C628.118 554.277 640.111 515.669 640.111 515.669C640.111 515.669 673.577 553.44 747.506 549.554C802.359 546.684 877.348 509.826 810.454 477.274C790.79 467.699 864.056 469.715 864.056 469.715C864.056 469.715 923.519 474.848 905.337 480.759C872.006 491.581 895.962 532.462 927.985 545.027C989.845 569.302 1080.57 549.554 1053.8 517.206C1045.08 506.657 1085.88 521.212 1085.88 521.212C1085.88 521.212 1106.26 529.6 1095.38 530.941C1066.65 534.486 1073.29 577.485 1105.24 590.016C1112.14 592.715 1144.71 602.657 1169.29 588.683C1190.13 576.836 1203.55 555.618 1203.55 555.618C1203.55 555.618 1209.71 567.389 1221.42 574.137C1234.35 581.559 1256.16 579.979 1266.11 570.165C1276.64 559.77 1278.03 541.055 1278.03 541.055C1278.03 541.055 1290.44 546.163 1303.34 548.999C1323.19 553.355 1341.78 547.06 1346.3 544.429C1354.27 539.774 1364.66 531.121 1366.17 517.36C1366.17 531.462 1363.17 535.477 1359.95 541.055C1350.45 557.549 1300.38 567.517 1300.38 567.517C1300.38 567.517 1290.78 600.479 1262.39 607.21C1228.87 615.145 1202.06 591.331 1202.06 591.331C1202.06 591.331 1181.03 629.726 1139.5 634.996C1087.37 641.607 1052.36 589.349 1052.36 589.349C1052.36 589.349 1024.78 638.729 945.858 642.94C871.39 646.903 837.866 591.331 837.866 591.331C837.866 591.331 817.769 652.207 734.214 659.101C662.008 665.08 616.674 613.172 616.674 613.172C616.674 613.172 603.959 633.501 576.461 644.921C507.94 673.374 467.727 620.441 467.727 620.441C467.727 620.441 393.239 682.633 301.638 650.875C253.985 634.355 227.91 581.406 227.91 581.406C227.91 581.406 203.646 596.268 176.523 599.275C140.746 603.247 105.721 593.005 97.5205 561.247C97.2703 560.248 95.6725 554.534 95.4511 553.568C145.79 624.498 236.842 538.407 236.842 538.407Z" fill="#B85368"/>
</g>
</g>
</g>
<g id="Clip path group_3">
<mask id="mask2_4_656" style="mask-type:luminance" maskUnits="userSpaceOnUse" x="93" y="168" width="1271" height="379">
<g id="f4ecaa806e">
<path id="Vector_5" d="M1363.57 168.023H93.632V546.667H1363.57V168.023Z" fill="white"/>
</g>
</mask>
<g mask="url(#mask2_4_656)">
<g id="Group_3">
<path id="Vector_6" d="M1322.48 489.754C1289.08 492.649 1255.68 512.995 1255.68 512.995C1255.68 512.995 1244.45 470.834 1218.45 454.775C1186.98 435.36 1124.6 450.812 1124.6 450.812C1124.6 450.812 1144.91 401.749 1132.04 382C1115.67 356.871 1075.45 372.75 1075.45 372.75C1075.45 372.75 1071.32 357.597 1054.59 348.936C1009.62 325.642 966.928 371.417 966.928 371.417C966.928 371.417 990.73 325.566 980.075 302.29C966.081 271.77 943.712 258.326 907.801 252.697C796.132 235.186 733.781 322.798 730.653 318.339C728.305 315.008 757.719 280.816 749.239 260.282C724.666 200.738 627.82 240.824 598.8 268.217C592.448 274.213 570.753 294.688 573.477 319.817C576.287 345.767 600.119 366.455 605.239 370.606C599.012 365.805 564.853 341.829 525.814 362.167C483.425 384.238 498.999 429.637 498.999 429.637C498.999 429.637 459.95 414.553 427.504 408.463C410.102 405.208 357.723 395.394 335.152 416.406C313.679 436.411 317.279 478.598 317.279 478.598C317.279 478.598 226.419 434.925 199.603 473.302C189.786 487.345 196.62 518.291 196.62 518.291C196.62 518.291 152.643 501.251 122.786 515.293C107.983 522.255 99.8016 530.608 94.1999 546.641C85.6818 481.596 177.264 493.153 177.264 493.153C177.264 493.153 160.574 452.777 189.921 437.581C238.334 412.511 285.997 448.156 285.997 448.156C285.997 448.156 280.039 403.175 323.987 385.981C367.916 368.769 440.161 389.944 440.161 389.944C440.161 389.944 418.264 345.698 431.229 320.483C458.776 266.893 536.238 278.8 536.238 278.8C536.238 278.8 536.401 242.942 551.878 217.274C578.049 173.866 666.753 153.545 721.692 179.563C753.878 194.81 775.313 223.236 775.313 223.236C775.313 223.236 855.537 154.971 962.625 193.862C1045.66 224.022 1038.96 318.493 1038.96 318.493C1038.96 318.493 1099.28 299.975 1132.04 340.992C1166.84 384.537 1148.44 429.637 1148.44 429.637C1148.44 429.637 1182.7 411.11 1224.41 429.637C1257.3 444.261 1266.85 477.274 1266.85 477.274C1266.85 477.274 1314.02 473.123 1345.06 487.191C1352.45 490.556 1358.39 496.527 1361.66 501.328C1351.39 491.727 1336.34 488.558 1322.48 489.754Z" fill="#FFF0C8"/>
</g>
</g>
</g>
<path id="Vector_7" d="M752.868 422.206C753.946 423.154 755.938 424.632 758.084 426.238C760.25 427.895 763.195 429.765 766.622 431.935C770.096 434.087 774.081 436.317 778.48 438.597C788.018 443.535 799.029 448.053 810.281 451.666C816.903 453.75 823.082 455.407 829.165 456.749C835.902 458.226 842.601 459.328 849.118 460.054C855.22 460.78 861.823 461.165 869.224 461.233C876.635 461.233 883.017 460.908 888.975 460.225C890.082 460.14 891.102 460.003 892.122 459.866L894.201 459.601C895.356 459.448 896.511 459.311 897.984 459.021L904.24 457.961C905.087 457.799 905.953 457.637 906.868 457.423C912.027 456.33 917.224 454.878 922.345 453.118C926.57 451.675 930.766 450.009 935.146 448.045C938.649 446.456 942.037 444.816 944.867 443.364L971.548 428.749L960.248 444.739L958.506 447.165C957.582 448.378 956.186 450.197 954.271 452.264C951.547 455.254 948.919 457.791 946.022 460.225C942.153 463.496 937.85 466.529 933.259 469.254C927.773 472.491 921.815 475.292 915.549 477.582C914.423 477.992 913.268 478.367 912.094 478.752L905.337 480.759C903.903 481.186 902.18 481.579 900.448 481.964L898.494 482.408C896.935 482.758 895.356 483.1 893.951 483.339C886.097 484.825 877.973 485.713 869.859 485.952C868.04 486.021 866.202 486.055 864.325 486.055C858.098 486.055 851.553 485.679 844.748 484.927C836.201 483.902 828.039 482.348 820.502 480.298C812.754 478.222 805.353 475.677 798.519 472.739C785.756 467.306 774.129 460.396 764.918 452.768C755.014 444.671 749.614 437.308 747.391 433.78C746.534 432.55 745.774 431.294 745.216 430.175C744.619 429.082 744.138 428.151 743.801 427.391L735.119 407.583L752.868 422.206Z" fill="#B85368"/>
<path id="Vector_8" d="M539.799 491.095C539.799 491.095 539.231 491.453 538.172 492.137C537.152 492.82 535.583 493.76 533.649 494.947C531.695 496.126 529.365 497.544 526.632 499.021C523.937 500.542 520.838 502.122 517.498 503.753C514.119 505.342 510.462 506.965 506.535 508.443C504.543 509.126 502.598 509.972 500.471 510.57C499.441 510.894 498.392 511.227 497.353 511.578C496.284 511.868 495.206 512.158 494.119 512.457C489.797 513.662 485.254 514.507 480.644 515.268C478.353 515.652 475.976 515.746 473.646 516.113C471.163 516.233 468.68 516.352 466.187 516.48C464.743 516.626 463.819 516.498 462.674 516.489L459.372 516.438C458.294 516.463 457.12 516.344 455.946 516.25C454.772 516.164 453.607 516.079 452.442 515.985C447.803 515.507 443.212 514.832 438.804 513.884C429.958 512.022 421.729 509.305 414.703 506.546C407.667 503.796 401.825 501.02 397.705 498.979C393.576 496.954 391.189 495.639 391.189 495.639C391.189 495.639 392.267 497.936 394.933 501.601C396.271 503.42 398.032 505.556 400.236 507.888C402.441 510.202 405.126 512.696 408.302 515.225C411.478 517.728 415.155 520.264 419.323 522.63C423.5 524.971 428.159 527.175 433.25 528.977C435.82 529.823 438.39 530.83 441.162 531.411C443.915 532.026 446.658 532.872 449.555 533.171C450.999 533.367 452.442 533.572 453.896 533.769C459.584 535.349 468.42 540.568 455.705 555.977L465.504 550.673C467.005 550.69 468.564 565.142 469.777 565.014C472.616 564.809 467.515 544.822 470.326 544.625C473.232 544.19 501.665 559.727 504.494 559.129C481.548 544.83 494.109 530.438 499.037 528.285C500.269 527.755 503.108 526.115 504.321 525.594C505.495 525.014 506.641 524.399 507.767 523.809C510.038 522.639 512.146 521.332 514.148 520.042C516.17 518.761 517.989 517.352 519.779 516.036C521.483 514.618 523.128 513.303 524.601 511.919C527.537 509.16 530.02 506.512 531.993 504.001C533.995 501.524 535.506 499.243 536.671 497.33C537.835 495.417 538.557 493.819 539.087 492.769C539.587 491.693 539.799 491.095 539.799 491.095Z" fill="#B85368"/>
<path id="Vector_9" d="M1141.53 514.687C1141.53 514.687 1139.39 515.199 1135.65 516.096C1131.96 516.959 1126.72 518.189 1120.51 519.137C1114.31 520.085 1107.13 520.811 1099.66 520.495C1098.73 520.427 1097.8 520.375 1096.85 520.316C1095.94 520.213 1095.04 520.111 1094.12 520C1093.09 519.88 1092.04 519.76 1090.99 519.632L1089.42 519.453L1088.1 519.154C1086.32 518.718 1084.59 518.496 1082.74 517.95C1080.91 517.369 1079.02 516.942 1077.22 516.258C1075.44 515.541 1073.59 514.96 1071.85 514.166C1070.16 513.294 1068.35 512.611 1066.68 511.697C1065.05 510.732 1063.35 509.895 1061.75 508.912C1060.21 507.887 1058.61 506.956 1057.1 505.906C1054.11 503.822 1051.28 501.669 1048.66 499.517C1046.05 497.356 1043.65 495.195 1041.43 493.162C1039.29 491.086 1037.24 489.19 1035.52 487.43C1033.82 485.645 1032.25 484.125 1031.03 482.809C1029.78 481.502 1028.81 480.477 1028.13 479.777C1027.44 479.076 1027.07 478.701 1027.07 478.701C1027.07 478.701 1027.21 479.179 1027.46 480.084C1027.74 480.981 1028.1 482.314 1028.75 483.945C1029.36 485.594 1030.15 487.584 1031.25 489.796C1032.32 492.034 1033.65 494.511 1035.27 497.151C1036.15 498.449 1037.06 499.79 1038.02 501.182C1039 502.557 1040.14 503.907 1041.26 505.342C1043.62 508.127 1046.31 510.962 1049.41 513.679C1052.52 516.369 1056.02 518.966 1059.89 521.272C1061.8 522.425 1063.88 523.433 1065.93 524.475C1068.02 525.466 1070.25 526.244 1072.42 527.123C1074.63 527.918 1076.97 528.439 1079.23 529.088C1081.49 529.729 1084.08 529.959 1086.46 530.369L1088.28 530.634L1089.88 530.728C1090.95 530.771 1091.99 530.805 1093.03 530.847L1094.6 530.916L1095.38 530.941L1096.11 530.967L1096.54 530.959C1097.66 530.907 1098.78 530.856 1099.88 530.805C1108.72 530.232 1116.56 528.046 1122.78 525.569C1129 523.049 1133.69 520.256 1136.8 518.172C1139.94 516.062 1141.53 514.687 1141.53 514.687Z" fill="#B85368"/>
</g>
</g>
</svg>
